# xmcd CD database file
#
# Track frame offsets:
#	150
#	19601
#	40983
#	59663
#	76349
#	85714
#	104217
#	131634
#	149396
#	167894
#	189155
#	202202
#	224250
#	240166
#	248519
#
# Disc length: 3617 seconds
#
# Revision: 1
# Processed by: cddbd v1.5.1PL2 Copyright (c) Steve Scherf et al.
# Submitted via: CDex 1.51
#
DISCID=d10e1f0f
DTITLE=Luther Johnson - On The Road Again
DYEAR=1972
DGENRE=Blues
TTITLE0=On The Road Again
TTITLE1=Back Door Man
TTITLE2=Aces Blues
TTITLE3=Things I Used To Do
TTITLE4=Impression Of France
TTITLE5=Boom Boom
TTITLE6=Catfish Blues
TTITLE7=You Move Me
TTITLE8=Rock Me Baby
TTITLE9=She Moves Me
TTITLE10=You Got Me Runnin'
TTITLE11=Hoochie Coochie
TTITLE12=Mellow Down Easy
TTITLE13=Impression Of France
TTITLE14=Little Red Rooster
EXTD=YEAR: 1972
EXTT0=
EXTT1=
EXTT2=
EXTT3=
EXTT4=
EXTT5=
EXTT6=
EXTT7=
EXTT8=
EXTT9=
EXTT10=
EXTT11=
EXTT12=
EXTT13=
EXTT14=
PLAYORDER=
